<mxfile host="app.diagrams.net" modified="2024-05-21T10:50:34.137Z" agent="Mozilla/5.0 (Windows NT 10.0; Win64; x64) AppleWebKit/537.36 (KHTML, like Gecko) Chrome/124.0.0.0 Safari/537.36 Edg/124.0.0.0" etag="dfRmZMY6NXfCixhD1D-8" version="24.4.4" type="device">
  <diagram name="Page-1" id="cpO6r1fn_m2St9NhPSkE">
    <mxGraphModel dx="1386" dy="785" grid="1" gridSize="10" guides="1" tooltips="1" connect="1" arrows="1" fold="1" page="1" pageScale="1" pageWidth="850" pageHeight="1100" math="0" shadow="0">
      <root>
        <mxCell id="0" />
        <mxCell id="1" parent="0" />
        <mxCell id="fEwCSlrx_3cbg3arFW34-1" value="-Home&lt;div style=&quot;font-size: 17px;&quot;&gt;-About&lt;/div&gt;&lt;div style=&quot;font-size: 17px;&quot;&gt;-Contact Us&lt;/div&gt;&lt;div style=&quot;font-size: 17px;&quot;&gt;-Services&lt;/div&gt;&lt;div style=&quot;font-size: 17px;&quot;&gt;-Blog&lt;/div&gt;&lt;div style=&quot;font-size: 17px;&quot;&gt;&lt;br style=&quot;font-size: 17px;&quot;&gt;&lt;/div&gt;" style="whiteSpace=wrap;html=1;aspect=fixed;fontStyle=1;fontSize=17;" vertex="1" parent="1">
          <mxGeometry x="30" y="70" width="120" height="120" as="geometry" />
        </mxCell>
        <mxCell id="fEwCSlrx_3cbg3arFW34-6" style="edgeStyle=orthogonalEdgeStyle;rounded=0;orthogonalLoop=1;jettySize=auto;html=1;exitX=0;exitY=1;exitDx=0;exitDy=0;" edge="1" parent="1" source="fEwCSlrx_3cbg3arFW34-5">
          <mxGeometry relative="1" as="geometry">
            <mxPoint x="290" y="280" as="targetPoint" />
          </mxGeometry>
        </mxCell>
        <mxCell id="fEwCSlrx_3cbg3arFW34-9" style="edgeStyle=orthogonalEdgeStyle;rounded=0;orthogonalLoop=1;jettySize=auto;html=1;" edge="1" parent="1" source="fEwCSlrx_3cbg3arFW34-5" target="fEwCSlrx_3cbg3arFW34-13">
          <mxGeometry relative="1" as="geometry">
            <mxPoint x="710" y="280" as="targetPoint" />
            <Array as="points">
              <mxPoint x="711" y="131" />
            </Array>
          </mxGeometry>
        </mxCell>
        <mxCell id="fEwCSlrx_3cbg3arFW34-10" style="edgeStyle=orthogonalEdgeStyle;rounded=0;orthogonalLoop=1;jettySize=auto;html=1;" edge="1" parent="1" source="fEwCSlrx_3cbg3arFW34-5">
          <mxGeometry relative="1" as="geometry">
            <mxPoint x="400" y="280" as="targetPoint" />
          </mxGeometry>
        </mxCell>
        <mxCell id="fEwCSlrx_3cbg3arFW34-12" style="edgeStyle=orthogonalEdgeStyle;rounded=0;orthogonalLoop=1;jettySize=auto;html=1;exitX=1;exitY=1;exitDx=0;exitDy=0;" edge="1" parent="1" source="fEwCSlrx_3cbg3arFW34-5">
          <mxGeometry relative="1" as="geometry">
            <mxPoint x="510" y="280" as="targetPoint" />
          </mxGeometry>
        </mxCell>
        <mxCell id="fEwCSlrx_3cbg3arFW34-5" value="&lt;b&gt;&lt;font style=&quot;font-size: 26px;&quot;&gt;Home&lt;/font&gt;&lt;/b&gt;" style="rounded=1;whiteSpace=wrap;html=1;" vertex="1" parent="1">
          <mxGeometry x="290" y="82.5" width="220" height="97.5" as="geometry" />
        </mxCell>
        <mxCell id="fEwCSlrx_3cbg3arFW34-13" value="&lt;b&gt;&lt;font style=&quot;font-size: 18px;&quot;&gt;Contact Us&lt;/font&gt;&lt;/b&gt;" style="rounded=1;whiteSpace=wrap;html=1;" vertex="1" parent="1">
          <mxGeometry x="650" y="280" width="120" height="60" as="geometry" />
        </mxCell>
        <mxCell id="fEwCSlrx_3cbg3arFW34-14" value="&lt;b&gt;&lt;font style=&quot;font-size: 18px;&quot;&gt;Blog&lt;/font&gt;&lt;/b&gt;" style="rounded=1;whiteSpace=wrap;html=1;" vertex="1" parent="1">
          <mxGeometry x="480" y="280" width="120" height="60" as="geometry" />
        </mxCell>
        <mxCell id="fEwCSlrx_3cbg3arFW34-15" value="&lt;b&gt;&lt;font style=&quot;font-size: 18px;&quot;&gt;Services&lt;/font&gt;&lt;/b&gt;" style="rounded=1;whiteSpace=wrap;html=1;" vertex="1" parent="1">
          <mxGeometry x="350" y="280" width="120" height="60" as="geometry" />
        </mxCell>
        <mxCell id="fEwCSlrx_3cbg3arFW34-16" value="&lt;b&gt;&lt;font style=&quot;font-size: 18px;&quot;&gt;About&lt;/font&gt;&lt;/b&gt;" style="rounded=1;whiteSpace=wrap;html=1;" vertex="1" parent="1">
          <mxGeometry x="220" y="280" width="120" height="60" as="geometry" />
        </mxCell>
      </root>
    </mxGraphModel>
  </diagram>
</mxfile>
